<mxfile host="app.diagrams.net" modified="2022-01-29T06:44:08.106Z" agent="5.0 (Windows NT 6.1; Win64; x64) AppleWebKit/537.36 (KHTML, like Gecko) Chrome/97.0.4692.71 Safari/537.36" etag="h6iCU9maFmgrU6tdwwP3" version="16.1.2" type="github">
  <diagram id="IRbPlLW_MTMiBRLNol3o" name="第 1 页">
    <mxGraphModel dx="2249" dy="762" grid="1" gridSize="10" guides="1" tooltips="1" connect="1" arrows="1" fold="1" page="1" pageScale="1" pageWidth="827" pageHeight="1169" math="0" shadow="0">
      <root>
        <mxCell id="0" />
        <mxCell id="1" parent="0" />
        <mxCell id="vTB9UbbACouyx4NtII5U-1" value="&lt;font face=&quot;Comic Sans MS&quot;&gt;1&lt;/font&gt;" style="rounded=0;whiteSpace=wrap;html=1;fillColor=#f5f5f5;fontColor=#333333;strokeColor=#666666;shadow=1;" vertex="1" parent="1">
          <mxGeometry x="280" y="160" width="40" height="40" as="geometry" />
        </mxCell>
        <mxCell id="vTB9UbbACouyx4NtII5U-2" value="&lt;font face=&quot;Comic Sans MS&quot;&gt;2&lt;/font&gt;" style="rounded=0;whiteSpace=wrap;html=1;fillColor=#f5f5f5;fontColor=#333333;strokeColor=#666666;shadow=1;" vertex="1" parent="1">
          <mxGeometry x="320" y="160" width="40" height="40" as="geometry" />
        </mxCell>
        <mxCell id="vTB9UbbACouyx4NtII5U-3" value="&lt;font face=&quot;Comic Sans MS&quot;&gt;3&lt;/font&gt;" style="rounded=0;whiteSpace=wrap;html=1;fillColor=#f5f5f5;fontColor=#333333;strokeColor=#666666;shadow=1;" vertex="1" parent="1">
          <mxGeometry x="360" y="160" width="40" height="40" as="geometry" />
        </mxCell>
        <mxCell id="vTB9UbbACouyx4NtII5U-4" value="&lt;font face=&quot;Comic Sans MS&quot;&gt;4&lt;/font&gt;" style="rounded=0;whiteSpace=wrap;html=1;fillColor=#f8cecc;strokeColor=#b85450;shadow=1;" vertex="1" parent="1">
          <mxGeometry x="400" y="160" width="40" height="40" as="geometry" />
        </mxCell>
        <mxCell id="vTB9UbbACouyx4NtII5U-5" value="&lt;font face=&quot;Comic Sans MS&quot;&gt;10&lt;/font&gt;" style="rounded=0;whiteSpace=wrap;html=1;fillColor=#dae8fc;strokeColor=#6c8ebf;shadow=1;" vertex="1" parent="1">
          <mxGeometry x="280" y="200" width="40" height="40" as="geometry" />
        </mxCell>
        <mxCell id="vTB9UbbACouyx4NtII5U-6" value="&lt;font face=&quot;Comic Sans MS&quot;&gt;11&lt;/font&gt;" style="rounded=0;whiteSpace=wrap;html=1;fillColor=#f5f5f5;fontColor=#333333;strokeColor=#666666;shadow=1;" vertex="1" parent="1">
          <mxGeometry x="320" y="200" width="40" height="40" as="geometry" />
        </mxCell>
        <mxCell id="vTB9UbbACouyx4NtII5U-7" value="&lt;font face=&quot;Comic Sans MS&quot;&gt;12&lt;/font&gt;" style="rounded=0;whiteSpace=wrap;html=1;fillColor=#dae8fc;strokeColor=#6c8ebf;shadow=1;" vertex="1" parent="1">
          <mxGeometry x="360" y="200" width="40" height="40" as="geometry" />
        </mxCell>
        <mxCell id="vTB9UbbACouyx4NtII5U-8" value="&lt;font face=&quot;Comic Sans MS&quot;&gt;5&lt;/font&gt;" style="rounded=0;whiteSpace=wrap;html=1;fillColor=#f5f5f5;fontColor=#333333;strokeColor=#666666;shadow=1;" vertex="1" parent="1">
          <mxGeometry x="400" y="200" width="40" height="40" as="geometry" />
        </mxCell>
        <mxCell id="vTB9UbbACouyx4NtII5U-9" value="&lt;font face=&quot;Comic Sans MS&quot;&gt;9&lt;/font&gt;" style="rounded=0;whiteSpace=wrap;html=1;fillColor=#f8cecc;strokeColor=#b85450;shadow=1;" vertex="1" parent="1">
          <mxGeometry x="280" y="240" width="40" height="40" as="geometry" />
        </mxCell>
        <mxCell id="vTB9UbbACouyx4NtII5U-10" value="&lt;font face=&quot;Comic Sans MS&quot;&gt;8&lt;/font&gt;" style="rounded=0;whiteSpace=wrap;html=1;fillColor=#f5f5f5;fontColor=#333333;strokeColor=#666666;shadow=1;" vertex="1" parent="1">
          <mxGeometry x="320" y="240" width="40" height="40" as="geometry" />
        </mxCell>
        <mxCell id="vTB9UbbACouyx4NtII5U-11" value="&lt;font face=&quot;Comic Sans MS&quot;&gt;7&lt;/font&gt;" style="rounded=0;whiteSpace=wrap;html=1;fillColor=#f5f5f5;fontColor=#333333;strokeColor=#666666;shadow=1;" vertex="1" parent="1">
          <mxGeometry x="360" y="240" width="40" height="40" as="geometry" />
        </mxCell>
        <mxCell id="vTB9UbbACouyx4NtII5U-12" value="&lt;font face=&quot;Comic Sans MS&quot;&gt;6&lt;/font&gt;" style="rounded=0;whiteSpace=wrap;html=1;fillColor=#f8cecc;strokeColor=#b85450;shadow=1;" vertex="1" parent="1">
          <mxGeometry x="400" y="240" width="40" height="40" as="geometry" />
        </mxCell>
        <mxCell id="vTB9UbbACouyx4NtII5U-13" value="" style="endArrow=classicThin;html=1;rounded=0;fontFamily=Comic Sans MS;endFill=1;" edge="1" parent="1">
          <mxGeometry width="50" height="50" relative="1" as="geometry">
            <mxPoint x="310" y="179.76" as="sourcePoint" />
            <mxPoint x="330" y="180" as="targetPoint" />
          </mxGeometry>
        </mxCell>
        <mxCell id="vTB9UbbACouyx4NtII5U-14" value="" style="endArrow=classicThin;html=1;rounded=0;fontFamily=Comic Sans MS;endFill=1;" edge="1" parent="1">
          <mxGeometry width="50" height="50" relative="1" as="geometry">
            <mxPoint x="350" y="179.76" as="sourcePoint" />
            <mxPoint x="370" y="180" as="targetPoint" />
          </mxGeometry>
        </mxCell>
        <mxCell id="vTB9UbbACouyx4NtII5U-15" value="" style="endArrow=classicThin;html=1;rounded=0;fontFamily=Comic Sans MS;endFill=1;" edge="1" parent="1">
          <mxGeometry width="50" height="50" relative="1" as="geometry">
            <mxPoint x="391" y="180.76" as="sourcePoint" />
            <mxPoint x="411" y="181" as="targetPoint" />
          </mxGeometry>
        </mxCell>
        <mxCell id="vTB9UbbACouyx4NtII5U-16" value="" style="endArrow=classicThin;html=1;rounded=0;fontFamily=Comic Sans MS;endFill=1;" edge="1" parent="1">
          <mxGeometry width="50" height="50" relative="1" as="geometry">
            <mxPoint x="419.7600000000002" y="190" as="sourcePoint" />
            <mxPoint x="419.7600000000002" y="210.24" as="targetPoint" />
          </mxGeometry>
        </mxCell>
        <mxCell id="vTB9UbbACouyx4NtII5U-17" value="" style="endArrow=classicThin;html=1;rounded=0;fontFamily=Comic Sans MS;endFill=1;" edge="1" parent="1">
          <mxGeometry width="50" height="50" relative="1" as="geometry">
            <mxPoint x="419.7600000000002" y="230" as="sourcePoint" />
            <mxPoint x="419.7600000000002" y="250.24" as="targetPoint" />
          </mxGeometry>
        </mxCell>
        <mxCell id="vTB9UbbACouyx4NtII5U-18" value="" style="endArrow=classicThin;html=1;rounded=0;fontFamily=Comic Sans MS;endFill=1;" edge="1" parent="1">
          <mxGeometry width="50" height="50" relative="1" as="geometry">
            <mxPoint x="410" y="259.76" as="sourcePoint" />
            <mxPoint x="390" y="260" as="targetPoint" />
          </mxGeometry>
        </mxCell>
        <mxCell id="vTB9UbbACouyx4NtII5U-19" value="" style="endArrow=classicThin;html=1;rounded=0;fontFamily=Comic Sans MS;endFill=1;" edge="1" parent="1">
          <mxGeometry width="50" height="50" relative="1" as="geometry">
            <mxPoint x="370" y="259.76" as="sourcePoint" />
            <mxPoint x="350" y="260" as="targetPoint" />
          </mxGeometry>
        </mxCell>
        <mxCell id="vTB9UbbACouyx4NtII5U-20" value="" style="endArrow=classicThin;html=1;rounded=0;fontFamily=Comic Sans MS;endFill=1;" edge="1" parent="1">
          <mxGeometry width="50" height="50" relative="1" as="geometry">
            <mxPoint x="330" y="260.76" as="sourcePoint" />
            <mxPoint x="310" y="261" as="targetPoint" />
          </mxGeometry>
        </mxCell>
        <mxCell id="vTB9UbbACouyx4NtII5U-21" value="" style="endArrow=classicThin;html=1;rounded=0;fontFamily=Comic Sans MS;endFill=1;" edge="1" parent="1">
          <mxGeometry width="50" height="50" relative="1" as="geometry">
            <mxPoint x="299.7600000000002" y="250" as="sourcePoint" />
            <mxPoint x="299.7600000000002" y="230.24" as="targetPoint" />
          </mxGeometry>
        </mxCell>
        <mxCell id="vTB9UbbACouyx4NtII5U-22" value="" style="endArrow=classicThin;html=1;rounded=0;fontFamily=Comic Sans MS;endFill=1;" edge="1" parent="1">
          <mxGeometry width="50" height="50" relative="1" as="geometry">
            <mxPoint x="310" y="219.88" as="sourcePoint" />
            <mxPoint x="330" y="220.12" as="targetPoint" />
          </mxGeometry>
        </mxCell>
        <mxCell id="vTB9UbbACouyx4NtII5U-23" value="" style="endArrow=classicThin;html=1;rounded=0;fontFamily=Comic Sans MS;endFill=1;" edge="1" parent="1">
          <mxGeometry width="50" height="50" relative="1" as="geometry">
            <mxPoint x="350" y="219.88" as="sourcePoint" />
            <mxPoint x="370" y="220.12" as="targetPoint" />
          </mxGeometry>
        </mxCell>
        <mxCell id="vTB9UbbACouyx4NtII5U-24" value="&lt;font face=&quot;Comic Sans MS&quot;&gt;1&lt;/font&gt;" style="rounded=0;whiteSpace=wrap;html=1;fillColor=#f8cecc;strokeColor=#b85450;shadow=1;" vertex="1" parent="1">
          <mxGeometry x="-160" y="380" width="40" height="40" as="geometry" />
        </mxCell>
        <mxCell id="vTB9UbbACouyx4NtII5U-25" value="&lt;font face=&quot;Comic Sans MS&quot;&gt;2&lt;/font&gt;" style="rounded=0;whiteSpace=wrap;html=1;fillColor=#f8cecc;strokeColor=#b85450;shadow=1;" vertex="1" parent="1">
          <mxGeometry x="-120" y="380" width="40" height="40" as="geometry" />
        </mxCell>
        <mxCell id="vTB9UbbACouyx4NtII5U-26" value="&lt;font face=&quot;Comic Sans MS&quot;&gt;3&lt;/font&gt;" style="rounded=0;whiteSpace=wrap;html=1;fillColor=#f8cecc;strokeColor=#b85450;shadow=1;" vertex="1" parent="1">
          <mxGeometry x="-80" y="380" width="40" height="40" as="geometry" />
        </mxCell>
        <mxCell id="vTB9UbbACouyx4NtII5U-27" value="&lt;font face=&quot;Comic Sans MS&quot;&gt;4&lt;/font&gt;" style="rounded=0;whiteSpace=wrap;html=1;fillColor=#f8cecc;strokeColor=#b85450;shadow=1;" vertex="1" parent="1">
          <mxGeometry x="-40" y="380" width="40" height="40" as="geometry" />
        </mxCell>
        <mxCell id="vTB9UbbACouyx4NtII5U-28" value="&lt;font face=&quot;Comic Sans MS&quot;&gt;20&lt;/font&gt;" style="rounded=0;whiteSpace=wrap;html=1;fillColor=#f8cecc;strokeColor=#b85450;shadow=1;" vertex="1" parent="1">
          <mxGeometry x="-160" y="420" width="40" height="40" as="geometry" />
        </mxCell>
        <mxCell id="vTB9UbbACouyx4NtII5U-29" value="&lt;font face=&quot;Comic Sans MS&quot;&gt;21&lt;/font&gt;" style="rounded=0;whiteSpace=wrap;html=1;fillColor=#dae8fc;strokeColor=#6c8ebf;shadow=1;" vertex="1" parent="1">
          <mxGeometry x="-120" y="420" width="40" height="40" as="geometry" />
        </mxCell>
        <mxCell id="vTB9UbbACouyx4NtII5U-30" value="&lt;font face=&quot;Comic Sans MS&quot;&gt;22&lt;/font&gt;" style="rounded=0;whiteSpace=wrap;html=1;fillColor=#dae8fc;strokeColor=#6c8ebf;shadow=1;" vertex="1" parent="1">
          <mxGeometry x="-80" y="420" width="40" height="40" as="geometry" />
        </mxCell>
        <mxCell id="vTB9UbbACouyx4NtII5U-31" value="&lt;font face=&quot;Comic Sans MS&quot;&gt;23&lt;/font&gt;" style="rounded=0;whiteSpace=wrap;html=1;shadow=1;fillColor=#dae8fc;strokeColor=#6c8ebf;" vertex="1" parent="1">
          <mxGeometry x="-40" y="420" width="40" height="40" as="geometry" />
        </mxCell>
        <mxCell id="vTB9UbbACouyx4NtII5U-32" value="&lt;font face=&quot;Comic Sans MS&quot;&gt;19&lt;/font&gt;" style="rounded=0;whiteSpace=wrap;html=1;fillColor=#f8cecc;strokeColor=#b85450;shadow=1;" vertex="1" parent="1">
          <mxGeometry x="-160" y="460" width="40" height="40" as="geometry" />
        </mxCell>
        <mxCell id="vTB9UbbACouyx4NtII5U-33" value="&lt;font face=&quot;Comic Sans MS&quot;&gt;32&lt;/font&gt;" style="rounded=0;whiteSpace=wrap;html=1;fillColor=#dae8fc;strokeColor=#6c8ebf;shadow=1;" vertex="1" parent="1">
          <mxGeometry x="-120" y="460" width="40" height="40" as="geometry" />
        </mxCell>
        <mxCell id="vTB9UbbACouyx4NtII5U-34" value="&lt;font face=&quot;Comic Sans MS&quot;&gt;33&lt;/font&gt;" style="rounded=0;whiteSpace=wrap;html=1;fillColor=#d5e8d4;strokeColor=#82b366;shadow=1;" vertex="1" parent="1">
          <mxGeometry x="-80" y="460" width="40" height="40" as="geometry" />
        </mxCell>
        <mxCell id="vTB9UbbACouyx4NtII5U-35" value="&lt;font face=&quot;Comic Sans MS&quot;&gt;34&lt;/font&gt;" style="rounded=0;whiteSpace=wrap;html=1;shadow=1;fillColor=#d5e8d4;strokeColor=#82b366;" vertex="1" parent="1">
          <mxGeometry x="-40" y="460" width="40" height="40" as="geometry" />
        </mxCell>
        <mxCell id="vTB9UbbACouyx4NtII5U-36" value="&lt;font face=&quot;Comic Sans MS&quot;&gt;18&lt;/font&gt;" style="rounded=0;whiteSpace=wrap;html=1;fillColor=#f8cecc;strokeColor=#b85450;shadow=1;" vertex="1" parent="1">
          <mxGeometry x="-160" y="500" width="40" height="40" as="geometry" />
        </mxCell>
        <mxCell id="vTB9UbbACouyx4NtII5U-37" value="&lt;font face=&quot;Comic Sans MS&quot;&gt;31&lt;/font&gt;" style="rounded=0;whiteSpace=wrap;html=1;fillColor=#dae8fc;strokeColor=#6c8ebf;shadow=1;" vertex="1" parent="1">
          <mxGeometry x="-120" y="500" width="40" height="40" as="geometry" />
        </mxCell>
        <mxCell id="vTB9UbbACouyx4NtII5U-38" value="&lt;font face=&quot;Comic Sans MS&quot;&gt;36&lt;/font&gt;" style="rounded=0;whiteSpace=wrap;html=1;fillColor=#d5e8d4;strokeColor=#82b366;shadow=1;" vertex="1" parent="1">
          <mxGeometry x="-80" y="500" width="40" height="40" as="geometry" />
        </mxCell>
        <mxCell id="vTB9UbbACouyx4NtII5U-39" value="&lt;font face=&quot;Comic Sans MS&quot;&gt;35&lt;/font&gt;" style="rounded=0;whiteSpace=wrap;html=1;fillColor=#d5e8d4;strokeColor=#82b366;shadow=1;" vertex="1" parent="1">
          <mxGeometry x="-40" y="500" width="40" height="40" as="geometry" />
        </mxCell>
        <mxCell id="vTB9UbbACouyx4NtII5U-40" value="&lt;font face=&quot;Comic Sans MS&quot;&gt;17&lt;/font&gt;" style="rounded=0;whiteSpace=wrap;html=1;fillColor=#f8cecc;strokeColor=#b85450;shadow=1;" vertex="1" parent="1">
          <mxGeometry x="-160" y="540" width="40" height="40" as="geometry" />
        </mxCell>
        <mxCell id="vTB9UbbACouyx4NtII5U-41" value="&lt;font face=&quot;Comic Sans MS&quot;&gt;30&lt;/font&gt;" style="rounded=0;whiteSpace=wrap;html=1;fillColor=#dae8fc;strokeColor=#6c8ebf;shadow=1;" vertex="1" parent="1">
          <mxGeometry x="-120" y="540" width="40" height="40" as="geometry" />
        </mxCell>
        <mxCell id="vTB9UbbACouyx4NtII5U-42" value="&lt;font face=&quot;Comic Sans MS&quot;&gt;29&lt;/font&gt;" style="rounded=0;whiteSpace=wrap;html=1;fillColor=#dae8fc;strokeColor=#6c8ebf;shadow=1;" vertex="1" parent="1">
          <mxGeometry x="-80" y="540" width="40" height="40" as="geometry" />
        </mxCell>
        <mxCell id="vTB9UbbACouyx4NtII5U-43" value="&lt;font face=&quot;Comic Sans MS&quot;&gt;28&lt;/font&gt;" style="rounded=0;whiteSpace=wrap;html=1;fillColor=#dae8fc;strokeColor=#6c8ebf;shadow=1;" vertex="1" parent="1">
          <mxGeometry x="-40" y="540" width="40" height="40" as="geometry" />
        </mxCell>
        <mxCell id="vTB9UbbACouyx4NtII5U-44" value="&lt;font face=&quot;Comic Sans MS&quot;&gt;16&lt;/font&gt;" style="rounded=0;whiteSpace=wrap;html=1;fillColor=#f8cecc;strokeColor=#b85450;shadow=1;" vertex="1" parent="1">
          <mxGeometry x="-160" y="580" width="40" height="40" as="geometry" />
        </mxCell>
        <mxCell id="vTB9UbbACouyx4NtII5U-45" value="&lt;font face=&quot;Comic Sans MS&quot;&gt;15&lt;/font&gt;" style="rounded=0;whiteSpace=wrap;html=1;fillColor=#f8cecc;strokeColor=#b85450;shadow=1;" vertex="1" parent="1">
          <mxGeometry x="-120" y="580" width="40" height="40" as="geometry" />
        </mxCell>
        <mxCell id="vTB9UbbACouyx4NtII5U-46" value="&lt;font face=&quot;Comic Sans MS&quot;&gt;14&lt;/font&gt;" style="rounded=0;whiteSpace=wrap;html=1;fillColor=#f8cecc;strokeColor=#b85450;shadow=1;" vertex="1" parent="1">
          <mxGeometry x="-80" y="580" width="40" height="40" as="geometry" />
        </mxCell>
        <mxCell id="vTB9UbbACouyx4NtII5U-47" value="&lt;font face=&quot;Comic Sans MS&quot;&gt;13&lt;/font&gt;" style="rounded=0;whiteSpace=wrap;html=1;fillColor=#f8cecc;strokeColor=#b85450;shadow=1;" vertex="1" parent="1">
          <mxGeometry x="-40" y="580" width="40" height="40" as="geometry" />
        </mxCell>
        <mxCell id="vTB9UbbACouyx4NtII5U-48" value="&lt;font face=&quot;Comic Sans MS&quot;&gt;5&lt;/font&gt;" style="rounded=0;whiteSpace=wrap;html=1;fillColor=#f8cecc;strokeColor=#b85450;shadow=1;" vertex="1" parent="1">
          <mxGeometry y="380" width="40" height="40" as="geometry" />
        </mxCell>
        <mxCell id="vTB9UbbACouyx4NtII5U-49" value="&lt;font face=&quot;Comic Sans MS&quot;&gt;6&lt;/font&gt;" style="rounded=0;whiteSpace=wrap;html=1;fillColor=#f8cecc;strokeColor=#b85450;shadow=1;" vertex="1" parent="1">
          <mxGeometry x="40" y="380" width="40" height="40" as="geometry" />
        </mxCell>
        <mxCell id="vTB9UbbACouyx4NtII5U-50" value="&lt;font face=&quot;Comic Sans MS&quot;&gt;24&lt;/font&gt;" style="rounded=0;whiteSpace=wrap;html=1;fillColor=#dae8fc;strokeColor=#6c8ebf;shadow=1;" vertex="1" parent="1">
          <mxGeometry y="420" width="40" height="40" as="geometry" />
        </mxCell>
        <mxCell id="vTB9UbbACouyx4NtII5U-51" value="&lt;font face=&quot;Comic Sans MS&quot;&gt;7&lt;/font&gt;" style="rounded=0;whiteSpace=wrap;html=1;fillColor=#f8cecc;strokeColor=#b85450;shadow=1;" vertex="1" parent="1">
          <mxGeometry x="40" y="420" width="40" height="40" as="geometry" />
        </mxCell>
        <mxCell id="vTB9UbbACouyx4NtII5U-52" value="&lt;font face=&quot;Comic Sans MS&quot;&gt;25&lt;/font&gt;" style="rounded=0;whiteSpace=wrap;html=1;shadow=1;fillColor=#dae8fc;strokeColor=#6c8ebf;" vertex="1" parent="1">
          <mxGeometry y="460" width="40" height="40" as="geometry" />
        </mxCell>
        <mxCell id="vTB9UbbACouyx4NtII5U-53" value="&lt;font face=&quot;Comic Sans MS&quot;&gt;8&lt;/font&gt;" style="rounded=0;whiteSpace=wrap;html=1;fillColor=#f8cecc;strokeColor=#b85450;shadow=1;" vertex="1" parent="1">
          <mxGeometry x="40" y="460" width="40" height="40" as="geometry" />
        </mxCell>
        <mxCell id="vTB9UbbACouyx4NtII5U-54" value="&lt;font face=&quot;Comic Sans MS&quot;&gt;26&lt;/font&gt;" style="rounded=0;whiteSpace=wrap;html=1;fillColor=#dae8fc;strokeColor=#6c8ebf;shadow=1;" vertex="1" parent="1">
          <mxGeometry y="500" width="40" height="40" as="geometry" />
        </mxCell>
        <mxCell id="vTB9UbbACouyx4NtII5U-55" value="&lt;font face=&quot;Comic Sans MS&quot;&gt;9&lt;/font&gt;" style="rounded=0;whiteSpace=wrap;html=1;fillColor=#f8cecc;strokeColor=#b85450;shadow=1;" vertex="1" parent="1">
          <mxGeometry x="40" y="500" width="40" height="40" as="geometry" />
        </mxCell>
        <mxCell id="vTB9UbbACouyx4NtII5U-56" value="&lt;font face=&quot;Comic Sans MS&quot;&gt;27&lt;/font&gt;" style="rounded=0;whiteSpace=wrap;html=1;fillColor=#dae8fc;strokeColor=#6c8ebf;shadow=1;" vertex="1" parent="1">
          <mxGeometry y="540" width="40" height="40" as="geometry" />
        </mxCell>
        <mxCell id="vTB9UbbACouyx4NtII5U-57" value="&lt;font face=&quot;Comic Sans MS&quot;&gt;10&lt;/font&gt;" style="rounded=0;whiteSpace=wrap;html=1;fillColor=#f8cecc;strokeColor=#b85450;shadow=1;" vertex="1" parent="1">
          <mxGeometry x="40" y="540" width="40" height="40" as="geometry" />
        </mxCell>
        <mxCell id="vTB9UbbACouyx4NtII5U-58" value="&lt;font face=&quot;Comic Sans MS&quot;&gt;12&lt;/font&gt;" style="rounded=0;whiteSpace=wrap;html=1;fillColor=#f8cecc;strokeColor=#b85450;shadow=1;" vertex="1" parent="1">
          <mxGeometry y="580" width="40" height="40" as="geometry" />
        </mxCell>
        <mxCell id="vTB9UbbACouyx4NtII5U-59" value="&lt;font face=&quot;Comic Sans MS&quot;&gt;11&lt;/font&gt;" style="rounded=0;whiteSpace=wrap;html=1;fillColor=#f8cecc;strokeColor=#b85450;shadow=1;" vertex="1" parent="1">
          <mxGeometry x="40" y="580" width="40" height="40" as="geometry" />
        </mxCell>
        <mxCell id="vTB9UbbACouyx4NtII5U-60" value="upper = 0" style="text;html=1;strokeColor=none;fillColor=none;align=center;verticalAlign=middle;whiteSpace=wrap;rounded=0;shadow=1;fontFamily=Comic Sans MS;" vertex="1" parent="1">
          <mxGeometry x="-80" y="320" width="80" height="40" as="geometry" />
        </mxCell>
        <mxCell id="vTB9UbbACouyx4NtII5U-61" value="right = 5" style="text;html=1;strokeColor=none;fillColor=none;align=center;verticalAlign=middle;whiteSpace=wrap;rounded=0;shadow=1;fontFamily=Comic Sans MS;" vertex="1" parent="1">
          <mxGeometry x="80" y="480" width="80" height="40" as="geometry" />
        </mxCell>
        <mxCell id="vTB9UbbACouyx4NtII5U-62" value="down = 5" style="text;html=1;strokeColor=none;fillColor=none;align=center;verticalAlign=middle;whiteSpace=wrap;rounded=0;shadow=1;fontFamily=Comic Sans MS;" vertex="1" parent="1">
          <mxGeometry x="-80" y="620" width="80" height="40" as="geometry" />
        </mxCell>
        <mxCell id="vTB9UbbACouyx4NtII5U-63" value="left = 0" style="text;html=1;strokeColor=none;fillColor=none;align=center;verticalAlign=middle;whiteSpace=wrap;rounded=0;shadow=1;fontFamily=Comic Sans MS;" vertex="1" parent="1">
          <mxGeometry x="-230" y="460" width="50" height="80" as="geometry" />
        </mxCell>
        <mxCell id="vTB9UbbACouyx4NtII5U-64" value="0" style="text;html=1;strokeColor=none;fillColor=none;align=center;verticalAlign=middle;whiteSpace=wrap;rounded=0;shadow=1;fontFamily=Comic Sans MS;" vertex="1" parent="1">
          <mxGeometry x="-180" y="380" width="20" height="40" as="geometry" />
        </mxCell>
        <mxCell id="vTB9UbbACouyx4NtII5U-65" value="1" style="text;html=1;strokeColor=none;fillColor=none;align=center;verticalAlign=middle;whiteSpace=wrap;rounded=0;shadow=1;fontFamily=Comic Sans MS;" vertex="1" parent="1">
          <mxGeometry x="-180" y="420" width="20" height="40" as="geometry" />
        </mxCell>
        <mxCell id="vTB9UbbACouyx4NtII5U-66" value="2" style="text;html=1;strokeColor=none;fillColor=none;align=center;verticalAlign=middle;whiteSpace=wrap;rounded=0;shadow=1;fontFamily=Comic Sans MS;" vertex="1" parent="1">
          <mxGeometry x="-180" y="460" width="20" height="40" as="geometry" />
        </mxCell>
        <mxCell id="vTB9UbbACouyx4NtII5U-67" value="3" style="text;html=1;strokeColor=none;fillColor=none;align=center;verticalAlign=middle;whiteSpace=wrap;rounded=0;shadow=1;fontFamily=Comic Sans MS;" vertex="1" parent="1">
          <mxGeometry x="-180" y="500" width="20" height="40" as="geometry" />
        </mxCell>
        <mxCell id="vTB9UbbACouyx4NtII5U-68" value="4" style="text;html=1;strokeColor=none;fillColor=none;align=center;verticalAlign=middle;whiteSpace=wrap;rounded=0;shadow=1;fontFamily=Comic Sans MS;" vertex="1" parent="1">
          <mxGeometry x="-180" y="540" width="20" height="40" as="geometry" />
        </mxCell>
        <mxCell id="vTB9UbbACouyx4NtII5U-69" value="5" style="text;html=1;strokeColor=none;fillColor=none;align=center;verticalAlign=middle;whiteSpace=wrap;rounded=0;shadow=1;fontFamily=Comic Sans MS;" vertex="1" parent="1">
          <mxGeometry x="-180" y="580" width="20" height="40" as="geometry" />
        </mxCell>
        <mxCell id="vTB9UbbACouyx4NtII5U-70" value="0" style="text;html=1;strokeColor=none;fillColor=none;align=center;verticalAlign=middle;whiteSpace=wrap;rounded=0;shadow=1;fontFamily=Comic Sans MS;" vertex="1" parent="1">
          <mxGeometry x="-160" y="360" width="40" height="20" as="geometry" />
        </mxCell>
        <mxCell id="vTB9UbbACouyx4NtII5U-71" value="1" style="text;html=1;strokeColor=none;fillColor=none;align=center;verticalAlign=middle;whiteSpace=wrap;rounded=0;shadow=1;fontFamily=Comic Sans MS;" vertex="1" parent="1">
          <mxGeometry x="-120" y="360" width="40" height="20" as="geometry" />
        </mxCell>
        <mxCell id="vTB9UbbACouyx4NtII5U-72" value="2" style="text;html=1;strokeColor=none;fillColor=none;align=center;verticalAlign=middle;whiteSpace=wrap;rounded=0;shadow=1;fontFamily=Comic Sans MS;" vertex="1" parent="1">
          <mxGeometry x="-80" y="360" width="40" height="20" as="geometry" />
        </mxCell>
        <mxCell id="vTB9UbbACouyx4NtII5U-73" value="3" style="text;html=1;strokeColor=none;fillColor=none;align=center;verticalAlign=middle;whiteSpace=wrap;rounded=0;shadow=1;fontFamily=Comic Sans MS;" vertex="1" parent="1">
          <mxGeometry x="-40" y="360" width="40" height="20" as="geometry" />
        </mxCell>
        <mxCell id="vTB9UbbACouyx4NtII5U-74" value="4" style="text;html=1;strokeColor=none;fillColor=none;align=center;verticalAlign=middle;whiteSpace=wrap;rounded=0;shadow=1;fontFamily=Comic Sans MS;" vertex="1" parent="1">
          <mxGeometry y="360" width="40" height="20" as="geometry" />
        </mxCell>
        <mxCell id="vTB9UbbACouyx4NtII5U-75" value="5" style="text;html=1;strokeColor=none;fillColor=none;align=center;verticalAlign=middle;whiteSpace=wrap;rounded=0;shadow=1;fontFamily=Comic Sans MS;" vertex="1" parent="1">
          <mxGeometry x="40" y="360" width="40" height="20" as="geometry" />
        </mxCell>
        <mxCell id="vTB9UbbACouyx4NtII5U-76" value="" style="rounded=0;whiteSpace=wrap;html=1;fillColor=#f8cecc;strokeColor=#b85450;shadow=1;" vertex="1" parent="1">
          <mxGeometry x="250" y="380" width="40" height="40" as="geometry" />
        </mxCell>
        <mxCell id="vTB9UbbACouyx4NtII5U-77" value="" style="rounded=0;whiteSpace=wrap;html=1;fillColor=#f8cecc;strokeColor=#b85450;shadow=1;" vertex="1" parent="1">
          <mxGeometry x="290" y="380" width="40" height="40" as="geometry" />
        </mxCell>
        <mxCell id="vTB9UbbACouyx4NtII5U-78" value="" style="rounded=0;whiteSpace=wrap;html=1;fillColor=#f8cecc;strokeColor=#b85450;shadow=1;" vertex="1" parent="1">
          <mxGeometry x="330" y="380" width="40" height="40" as="geometry" />
        </mxCell>
        <mxCell id="vTB9UbbACouyx4NtII5U-79" value="" style="rounded=0;whiteSpace=wrap;html=1;fillColor=#f8cecc;strokeColor=#b85450;shadow=1;" vertex="1" parent="1">
          <mxGeometry x="370" y="380" width="40" height="40" as="geometry" />
        </mxCell>
        <mxCell id="vTB9UbbACouyx4NtII5U-80" value="" style="rounded=0;whiteSpace=wrap;html=1;fillColor=#ffe6cc;strokeColor=#d79b00;shadow=1;" vertex="1" parent="1">
          <mxGeometry x="250" y="420" width="40" height="40" as="geometry" />
        </mxCell>
        <mxCell id="vTB9UbbACouyx4NtII5U-84" value="" style="rounded=0;whiteSpace=wrap;html=1;fillColor=#ffe6cc;strokeColor=#d79b00;shadow=1;" vertex="1" parent="1">
          <mxGeometry x="250" y="460" width="40" height="40" as="geometry" />
        </mxCell>
        <mxCell id="vTB9UbbACouyx4NtII5U-88" value="" style="rounded=0;whiteSpace=wrap;html=1;fillColor=#ffe6cc;strokeColor=#d79b00;shadow=1;" vertex="1" parent="1">
          <mxGeometry x="250" y="500" width="40" height="40" as="geometry" />
        </mxCell>
        <mxCell id="vTB9UbbACouyx4NtII5U-92" value="" style="rounded=0;whiteSpace=wrap;html=1;fillColor=#ffe6cc;strokeColor=#d79b00;shadow=1;" vertex="1" parent="1">
          <mxGeometry x="250" y="540" width="40" height="40" as="geometry" />
        </mxCell>
        <mxCell id="vTB9UbbACouyx4NtII5U-96" value="" style="rounded=0;whiteSpace=wrap;html=1;fillColor=#d5e8d4;strokeColor=#82b366;shadow=1;" vertex="1" parent="1">
          <mxGeometry x="250" y="580" width="40" height="40" as="geometry" />
        </mxCell>
        <mxCell id="vTB9UbbACouyx4NtII5U-97" value="" style="rounded=0;whiteSpace=wrap;html=1;fillColor=#d5e8d4;strokeColor=#82b366;shadow=1;" vertex="1" parent="1">
          <mxGeometry x="290" y="580" width="40" height="40" as="geometry" />
        </mxCell>
        <mxCell id="vTB9UbbACouyx4NtII5U-98" value="" style="rounded=0;whiteSpace=wrap;html=1;fillColor=#d5e8d4;strokeColor=#82b366;shadow=1;" vertex="1" parent="1">
          <mxGeometry x="330" y="580" width="40" height="40" as="geometry" />
        </mxCell>
        <mxCell id="vTB9UbbACouyx4NtII5U-99" value="" style="rounded=0;whiteSpace=wrap;html=1;fillColor=#d5e8d4;strokeColor=#82b366;shadow=1;" vertex="1" parent="1">
          <mxGeometry x="370" y="580" width="40" height="40" as="geometry" />
        </mxCell>
        <mxCell id="vTB9UbbACouyx4NtII5U-100" value="" style="rounded=0;whiteSpace=wrap;html=1;fillColor=#f8cecc;strokeColor=#b85450;shadow=1;" vertex="1" parent="1">
          <mxGeometry x="410" y="380" width="40" height="40" as="geometry" />
        </mxCell>
        <mxCell id="vTB9UbbACouyx4NtII5U-101" value="" style="rounded=0;whiteSpace=wrap;html=1;fillColor=#f8cecc;strokeColor=#b85450;shadow=1;" vertex="1" parent="1">
          <mxGeometry x="450" y="380" width="40" height="40" as="geometry" />
        </mxCell>
        <mxCell id="vTB9UbbACouyx4NtII5U-103" value="" style="rounded=0;whiteSpace=wrap;html=1;fillColor=#dae8fc;strokeColor=#6c8ebf;shadow=1;" vertex="1" parent="1">
          <mxGeometry x="450" y="420" width="40" height="40" as="geometry" />
        </mxCell>
        <mxCell id="vTB9UbbACouyx4NtII5U-105" value="" style="rounded=0;whiteSpace=wrap;html=1;fillColor=#dae8fc;strokeColor=#6c8ebf;shadow=1;" vertex="1" parent="1">
          <mxGeometry x="450" y="460" width="40" height="40" as="geometry" />
        </mxCell>
        <mxCell id="vTB9UbbACouyx4NtII5U-107" value="" style="rounded=0;whiteSpace=wrap;html=1;fillColor=#dae8fc;strokeColor=#6c8ebf;shadow=1;" vertex="1" parent="1">
          <mxGeometry x="450" y="500" width="40" height="40" as="geometry" />
        </mxCell>
        <mxCell id="vTB9UbbACouyx4NtII5U-109" value="" style="rounded=0;whiteSpace=wrap;html=1;fillColor=#dae8fc;strokeColor=#6c8ebf;shadow=1;" vertex="1" parent="1">
          <mxGeometry x="450" y="540" width="40" height="40" as="geometry" />
        </mxCell>
        <mxCell id="vTB9UbbACouyx4NtII5U-110" value="" style="rounded=0;whiteSpace=wrap;html=1;fillColor=#d5e8d4;strokeColor=#82b366;shadow=1;" vertex="1" parent="1">
          <mxGeometry x="410" y="580" width="40" height="40" as="geometry" />
        </mxCell>
        <mxCell id="vTB9UbbACouyx4NtII5U-111" value="" style="rounded=0;whiteSpace=wrap;html=1;fillColor=#dae8fc;strokeColor=#6c8ebf;shadow=1;" vertex="1" parent="1">
          <mxGeometry x="450" y="580" width="40" height="40" as="geometry" />
        </mxCell>
        <mxCell id="vTB9UbbACouyx4NtII5U-112" value="right = 5" style="text;html=1;strokeColor=none;fillColor=none;align=center;verticalAlign=middle;whiteSpace=wrap;rounded=0;shadow=1;fontFamily=Comic Sans MS;" vertex="1" parent="1">
          <mxGeometry x="490" y="480" width="80" height="40" as="geometry" />
        </mxCell>
        <mxCell id="vTB9UbbACouyx4NtII5U-113" value="down = 5" style="text;html=1;strokeColor=none;fillColor=none;align=center;verticalAlign=middle;whiteSpace=wrap;rounded=0;shadow=1;fontFamily=Comic Sans MS;" vertex="1" parent="1">
          <mxGeometry x="330" y="620" width="80" height="40" as="geometry" />
        </mxCell>
        <mxCell id="vTB9UbbACouyx4NtII5U-114" value="left = 0" style="text;html=1;strokeColor=none;fillColor=none;align=center;verticalAlign=middle;whiteSpace=wrap;rounded=0;shadow=1;fontFamily=Comic Sans MS;" vertex="1" parent="1">
          <mxGeometry x="180" y="460" width="50" height="80" as="geometry" />
        </mxCell>
        <mxCell id="vTB9UbbACouyx4NtII5U-115" value="0" style="text;html=1;strokeColor=none;fillColor=none;align=center;verticalAlign=middle;whiteSpace=wrap;rounded=0;shadow=1;fontFamily=Comic Sans MS;" vertex="1" parent="1">
          <mxGeometry x="230" y="380" width="20" height="40" as="geometry" />
        </mxCell>
        <mxCell id="vTB9UbbACouyx4NtII5U-116" value="1" style="text;html=1;strokeColor=none;fillColor=none;align=center;verticalAlign=middle;whiteSpace=wrap;rounded=0;shadow=1;fontFamily=Comic Sans MS;" vertex="1" parent="1">
          <mxGeometry x="230" y="420" width="20" height="40" as="geometry" />
        </mxCell>
        <mxCell id="vTB9UbbACouyx4NtII5U-117" value="2" style="text;html=1;strokeColor=none;fillColor=none;align=center;verticalAlign=middle;whiteSpace=wrap;rounded=0;shadow=1;fontFamily=Comic Sans MS;" vertex="1" parent="1">
          <mxGeometry x="230" y="460" width="20" height="40" as="geometry" />
        </mxCell>
        <mxCell id="vTB9UbbACouyx4NtII5U-118" value="3" style="text;html=1;strokeColor=none;fillColor=none;align=center;verticalAlign=middle;whiteSpace=wrap;rounded=0;shadow=1;fontFamily=Comic Sans MS;" vertex="1" parent="1">
          <mxGeometry x="230" y="500" width="20" height="40" as="geometry" />
        </mxCell>
        <mxCell id="vTB9UbbACouyx4NtII5U-119" value="4" style="text;html=1;strokeColor=none;fillColor=none;align=center;verticalAlign=middle;whiteSpace=wrap;rounded=0;shadow=1;fontFamily=Comic Sans MS;" vertex="1" parent="1">
          <mxGeometry x="230" y="540" width="20" height="40" as="geometry" />
        </mxCell>
        <mxCell id="vTB9UbbACouyx4NtII5U-120" value="5" style="text;html=1;strokeColor=none;fillColor=none;align=center;verticalAlign=middle;whiteSpace=wrap;rounded=0;shadow=1;fontFamily=Comic Sans MS;" vertex="1" parent="1">
          <mxGeometry x="230" y="580" width="20" height="40" as="geometry" />
        </mxCell>
        <mxCell id="vTB9UbbACouyx4NtII5U-121" value="0" style="text;html=1;strokeColor=none;fillColor=none;align=center;verticalAlign=middle;whiteSpace=wrap;rounded=0;shadow=1;fontFamily=Comic Sans MS;" vertex="1" parent="1">
          <mxGeometry x="250" y="360" width="40" height="20" as="geometry" />
        </mxCell>
        <mxCell id="vTB9UbbACouyx4NtII5U-122" value="1" style="text;html=1;strokeColor=none;fillColor=none;align=center;verticalAlign=middle;whiteSpace=wrap;rounded=0;shadow=1;fontFamily=Comic Sans MS;" vertex="1" parent="1">
          <mxGeometry x="290" y="360" width="40" height="20" as="geometry" />
        </mxCell>
        <mxCell id="vTB9UbbACouyx4NtII5U-123" value="2" style="text;html=1;strokeColor=none;fillColor=none;align=center;verticalAlign=middle;whiteSpace=wrap;rounded=0;shadow=1;fontFamily=Comic Sans MS;" vertex="1" parent="1">
          <mxGeometry x="330" y="360" width="40" height="20" as="geometry" />
        </mxCell>
        <mxCell id="vTB9UbbACouyx4NtII5U-124" value="3" style="text;html=1;strokeColor=none;fillColor=none;align=center;verticalAlign=middle;whiteSpace=wrap;rounded=0;shadow=1;fontFamily=Comic Sans MS;" vertex="1" parent="1">
          <mxGeometry x="370" y="360" width="40" height="20" as="geometry" />
        </mxCell>
        <mxCell id="vTB9UbbACouyx4NtII5U-125" value="4" style="text;html=1;strokeColor=none;fillColor=none;align=center;verticalAlign=middle;whiteSpace=wrap;rounded=0;shadow=1;fontFamily=Comic Sans MS;" vertex="1" parent="1">
          <mxGeometry x="410" y="360" width="40" height="20" as="geometry" />
        </mxCell>
        <mxCell id="vTB9UbbACouyx4NtII5U-126" value="5" style="text;html=1;strokeColor=none;fillColor=none;align=center;verticalAlign=middle;whiteSpace=wrap;rounded=0;shadow=1;fontFamily=Comic Sans MS;" vertex="1" parent="1">
          <mxGeometry x="450" y="360" width="40" height="20" as="geometry" />
        </mxCell>
        <mxCell id="vTB9UbbACouyx4NtII5U-128" value="upper = 0" style="text;html=1;strokeColor=none;fillColor=none;align=center;verticalAlign=middle;whiteSpace=wrap;rounded=0;shadow=1;fontFamily=Comic Sans MS;" vertex="1" parent="1">
          <mxGeometry x="320" y="320" width="80" height="40" as="geometry" />
        </mxCell>
      </root>
    </mxGraphModel>
  </diagram>
</mxfile>
